<svg width="325" height="69" viewBox="0 0 325 69" fill="none" xmlns="http://www.w3.org/2000/svg">
<path d="M0 51.5556V6.44482C0 4.02931 1.35862 1.81624 3.5199 0.712355C5.68113 -0.391496 8.28203 -0.20085 10.2574 1.2056C16.5991 5.72111 20.3972 7.09854 23.4998 7.09854C26.6023 7.09854 30.4005 5.72111 36.7422 1.2056C39.6528 -0.866753 43.7025 -0.201015 45.7872 2.6924C47.8719 5.58587 47.2022 9.61157 44.2916 11.684C37.3422 16.6323 30.7687 19.9873 23.4998 19.9873C19.8586 19.9873 16.3922 19.1446 12.9654 17.6824V51.5556C12.9654 55.1147 10.063 58 6.4827 58C2.9024 58 0 55.1147 0 51.5556Z" fill="url(#paint0_linear_1157_56)"/>
<path d="M66 16.4444L66 61.5552L65.996 61.781C65.9143 64.1079 64.5739 66.2182 62.4801 67.2876C60.3189 68.3915 57.718 68.2008 55.7426 66.7944C49.4009 62.2789 45.6028 60.9015 42.5002 60.9015C39.3977 60.9015 35.5995 62.2789 29.2578 66.7944C26.3472 68.8668 22.2975 68.201 20.2128 65.3076C18.1281 62.4141 18.7978 58.3884 21.7084 56.316C28.6578 51.3677 35.2313 48.0127 42.5002 48.0127C46.1414 48.0127 49.6078 48.8554 53.0346 50.3176L53.0346 16.4444L53.0433 16.1124C53.2171 12.7076 56.049 10 59.5173 10C62.9856 10 65.8175 12.7076 65.9913 16.1124L66 16.4444Z" fill="url(#paint1_linear_1157_56)"/>
<path d="M122.52 15.48C122.52 16.248 122.28 16.944 121.8 17.568C121.368 18.144 120.84 18.6 120.216 18.936C119.016 18.072 117.6 17.28 115.968 16.56C114.336 15.84 112.272 15.48 109.776 15.48C106.992 15.48 104.496 16.128 102.288 17.424C100.128 18.672 98.424 20.544 97.176 23.04C95.928 25.488 95.304 28.536 95.304 32.184C95.304 37.656 96.648 41.784 99.336 44.568C102.072 47.352 105.672 48.744 110.136 48.744C112.488 48.744 114.528 48.408 116.256 47.736C118.032 47.064 119.52 46.296 120.72 45.432C121.296 45.768 121.8 46.248 122.232 46.872C122.664 47.448 122.88 48.144 122.88 48.96C122.88 49.632 122.712 50.256 122.376 50.832C122.04 51.36 121.464 51.864 120.648 52.344C119.592 53.016 118.152 53.616 116.328 54.144C114.504 54.72 112.176 55.008 109.344 55.008C105.312 55.008 101.64 54.168 98.328 52.488C95.016 50.808 92.376 48.288 90.408 44.928C88.488 41.52 87.528 37.272 87.528 32.184C87.528 27.144 88.512 22.92 90.48 19.512C92.448 16.104 95.064 13.536 98.328 11.808C101.592 10.08 105.144 9.216 108.984 9.216C111.72 9.216 114.096 9.528 116.112 10.152C118.128 10.728 119.688 11.496 120.792 12.456C121.944 13.416 122.52 14.424 122.52 15.48ZM135.849 27.504V38.088H128.433V27.36C128.433 26.208 128.673 25.272 129.153 24.552C129.681 23.784 130.449 23.064 131.457 22.392C132.801 21.528 134.553 20.808 136.713 20.232C138.921 19.656 141.321 19.368 143.913 19.368C148.089 19.368 150.177 20.544 150.177 22.896C150.177 23.472 150.081 24 149.889 24.48C149.745 24.96 149.553 25.392 149.313 25.776C148.833 25.68 148.209 25.584 147.441 25.488C146.721 25.392 145.977 25.344 145.209 25.344C143.241 25.344 141.441 25.56 139.809 25.992C138.225 26.376 136.905 26.88 135.849 27.504ZM128.433 34.992L135.849 35.64V53.856C135.513 53.952 135.033 54.072 134.409 54.216C133.833 54.36 133.185 54.432 132.465 54.432C131.121 54.432 130.113 54.168 129.441 53.64C128.769 53.112 128.433 52.248 128.433 51.048V34.992ZM185.67 37.152C185.67 40.752 184.974 43.896 183.582 46.584C182.19 49.272 180.222 51.36 177.678 52.848C175.134 54.288 172.134 55.008 168.678 55.008C165.222 55.008 162.222 54.288 159.678 52.848C157.134 51.36 155.166 49.296 153.774 46.656C152.382 43.968 151.686 40.8 151.686 37.152C151.686 33.504 152.382 30.36 153.774 27.72C155.214 25.032 157.206 22.968 159.75 21.528C162.342 20.04 165.318 19.296 168.678 19.296C172.086 19.296 175.062 20.04 177.606 21.528C180.15 22.968 182.118 25.032 183.51 27.72C184.95 30.36 185.67 33.504 185.67 37.152ZM168.678 25.272C165.798 25.272 163.494 26.328 161.766 28.44C160.086 30.552 159.246 33.456 159.246 37.152C159.246 40.896 160.062 43.824 161.694 45.936C163.374 48 165.702 49.032 168.678 49.032C171.654 49.032 173.958 47.976 175.59 45.864C177.27 43.752 178.11 40.848 178.11 37.152C178.11 33.456 177.27 30.552 175.59 28.44C173.91 26.328 171.606 25.272 168.678 25.272ZM205.653 52.848C202.821 52.848 200.205 52.32 197.805 51.264C195.453 50.16 193.557 48.384 192.117 45.936C190.677 43.44 189.957 40.176 189.957 36.144C189.957 32.448 190.677 29.352 192.117 26.856C193.557 24.36 195.549 22.488 198.093 21.24C200.685 19.944 203.661 19.296 207.021 19.296C209.373 19.296 211.533 19.608 213.501 20.232C215.469 20.808 217.077 21.504 218.325 22.32C219.093 22.848 219.717 23.448 220.197 24.12C220.677 24.792 220.917 25.608 220.917 26.568V48.888H213.645V27C212.925 26.568 212.037 26.184 210.981 25.848C209.925 25.464 208.653 25.272 207.165 25.272C204.237 25.272 201.861 26.184 200.037 28.008C198.261 29.784 197.373 32.472 197.373 36.072C197.373 40.104 198.261 42.936 200.037 44.568C201.813 46.2 204.021 47.016 206.661 47.016C208.629 47.016 210.213 46.68 211.413 46.008C212.613 45.336 213.597 44.616 214.365 43.848L214.725 50.04C213.909 50.76 212.733 51.408 211.197 51.984C209.661 52.56 207.813 52.848 205.653 52.848ZM213.717 54.576V47.304H220.917V54.936C220.917 58.152 220.197 60.744 218.757 62.712C217.317 64.728 215.349 66.192 212.853 67.104C210.405 68.016 207.645 68.472 204.573 68.472C202.125 68.472 200.013 68.208 198.237 67.68C196.461 67.2 195.189 66.744 194.421 66.312C192.885 65.4 192.117 64.224 192.117 62.784C192.117 61.968 192.285 61.272 192.621 60.696C193.005 60.168 193.437 59.76 193.917 59.472C195.021 60.24 196.485 60.912 198.309 61.488C200.133 62.112 202.077 62.424 204.141 62.424C207.213 62.424 209.565 61.8 211.197 60.552C212.877 59.304 213.717 57.312 213.717 54.576ZM242.657 52.848C239.825 52.848 237.209 52.32 234.809 51.264C232.457 50.16 230.561 48.384 229.121 45.936C227.681 43.44 226.961 40.176 226.961 36.144C226.961 32.448 227.681 29.352 229.121 26.856C230.561 24.36 232.553 22.488 235.097 21.24C237.689 19.944 240.665 19.296 244.025 19.296C246.377 19.296 248.537 19.608 250.505 20.232C252.473 20.808 254.081 21.504 255.329 22.32C256.097 22.848 256.721 23.448 257.201 24.12C257.681 24.792 257.921 25.608 257.921 26.568V48.888H250.649V27C249.929 26.568 249.041 26.184 247.985 25.848C246.929 25.464 245.657 25.272 244.169 25.272C241.241 25.272 238.865 26.184 237.041 28.008C235.265 29.784 234.377 32.472 234.377 36.072C234.377 40.104 235.265 42.936 237.041 44.568C238.817 46.2 241.025 47.016 243.665 47.016C245.633 47.016 247.217 46.68 248.417 46.008C249.617 45.336 250.601 44.616 251.369 43.848L251.729 50.04C250.913 50.76 249.737 51.408 248.201 51.984C246.665 52.56 244.817 52.848 242.657 52.848ZM250.721 54.576V47.304H257.921V54.936C257.921 58.152 257.201 60.744 255.761 62.712C254.321 64.728 252.353 66.192 249.857 67.104C247.409 68.016 244.649 68.472 241.577 68.472C239.129 68.472 237.017 68.208 235.241 67.68C233.465 67.2 232.193 66.744 231.425 66.312C229.889 65.4 229.121 64.224 229.121 62.784C229.121 61.968 229.289 61.272 229.625 60.696C230.009 60.168 230.441 59.76 230.921 59.472C232.025 60.24 233.489 60.912 235.313 61.488C237.137 62.112 239.081 62.424 241.145 62.424C244.217 62.424 246.569 61.8 248.201 60.552C249.881 59.304 250.721 57.312 250.721 54.576ZM268.717 41.256L268.357 35.856L288.805 32.976C288.661 30.72 287.869 28.848 286.429 27.36C284.989 25.824 282.949 25.056 280.309 25.056C277.621 25.056 275.389 26.016 273.613 27.936C271.837 29.856 270.925 32.592 270.877 36.144L271.021 38.88C271.405 42.288 272.629 44.856 274.693 46.584C276.757 48.264 279.469 49.104 282.829 49.104C284.845 49.104 286.693 48.792 288.373 48.168C290.053 47.544 291.397 46.872 292.405 46.152C292.981 46.488 293.437 46.944 293.773 47.52C294.157 48.096 294.349 48.72 294.349 49.392C294.349 50.448 293.821 51.408 292.765 52.272C291.709 53.136 290.269 53.808 288.445 54.288C286.669 54.768 284.653 55.008 282.397 55.008C278.701 55.008 275.461 54.336 272.677 52.992C269.893 51.6 267.733 49.56 266.197 46.872C264.661 44.136 263.893 40.8 263.893 36.864C263.893 34.032 264.301 31.536 265.117 29.376C265.981 27.168 267.157 25.32 268.645 23.832C270.133 22.344 271.885 21.216 273.901 20.448C275.917 19.68 278.077 19.296 280.381 19.296C283.405 19.296 286.069 19.944 288.373 21.24C290.725 22.488 292.549 24.24 293.845 26.496C295.141 28.752 295.789 31.32 295.789 34.2C295.789 35.4 295.501 36.288 294.925 36.864C294.349 37.392 293.533 37.728 292.477 37.872L268.717 41.256ZM308.846 27.504V38.088H301.43V27.36C301.43 26.208 301.67 25.272 302.15 24.552C302.678 23.784 303.446 23.064 304.454 22.392C305.798 21.528 307.55 20.808 309.71 20.232C311.918 19.656 314.318 19.368 316.91 19.368C321.086 19.368 323.174 20.544 323.174 22.896C323.174 23.472 323.078 24 322.886 24.48C322.742 24.96 322.55 25.392 322.31 25.776C321.83 25.68 321.206 25.584 320.438 25.488C319.718 25.392 318.974 25.344 318.206 25.344C316.238 25.344 314.438 25.56 312.806 25.992C311.222 26.376 309.902 26.88 308.846 27.504ZM301.43 34.992L308.846 35.64V53.856C308.51 53.952 308.03 54.072 307.406 54.216C306.83 54.36 306.182 54.432 305.462 54.432C304.118 54.432 303.11 54.168 302.438 53.64C301.766 53.112 301.43 52.248 301.43 51.048V34.992Z" fill="url(#paint2_linear_1157_56)"/>
<defs>
<linearGradient id="paint0_linear_1157_56" x1="66" y1="15.5" x2="19" y2="62.5" gradientUnits="userSpaceOnUse">
<stop stop-color="#6F50FF"/>
<stop offset="0.5" stop-color="#8B73FF"/>
<stop offset="1" stop-color="#6F50FF"/>
</linearGradient>
<linearGradient id="paint1_linear_1157_56" x1="66" y1="15.5" x2="19" y2="62.5" gradientUnits="userSpaceOnUse">
<stop stop-color="#6F50FF"/>
<stop offset="0.5" stop-color="#8B73FF"/>
<stop offset="1" stop-color="#6F50FF"/>
</linearGradient>
<linearGradient id="paint2_linear_1157_56" x1="106.557" y1="-26" x2="265.705" y2="108.426" gradientUnits="userSpaceOnUse">
<stop offset="0.111333" stop-color="white"/>
<stop offset="1" stop-color="#CBCBCB"/>
</linearGradient>
</defs>
</svg>
