<svg viewBox="0 0 66 68" fill="none" xmlns="http://www.w3.org/2000/svg">
<path d="M0 51.5556V6.44482C0 4.02931 1.35862 1.81624 3.5199 0.712355C5.68113 -0.391496 8.28203 -0.20085 10.2574 1.2056C16.5991 5.72111 20.3972 7.09854 23.4998 7.09854C26.6023 7.09854 30.4005 5.72111 36.7422 1.2056C39.6528 -0.866753 43.7025 -0.201015 45.7872 2.6924C47.8719 5.58587 47.2022 9.61157 44.2916 11.684C37.3422 16.6323 30.7687 19.9873 23.4998 19.9873C19.8586 19.9873 16.3922 19.1446 12.9654 17.6824V51.5556C12.9654 55.1147 10.063 58 6.4827 58C2.9024 58 0 55.1147 0 51.5556Z" fill="url(#paint0_linear_1156_26)"/>
<path d="M66 16.4444L66 61.5552L65.996 61.781C65.9143 64.1079 64.5739 66.2182 62.4801 67.2876C60.3189 68.3915 57.718 68.2008 55.7426 66.7944C49.4009 62.2789 45.6028 60.9015 42.5002 60.9015C39.3977 60.9015 35.5995 62.2789 29.2578 66.7944C26.3472 68.8668 22.2975 68.201 20.2128 65.3076C18.1281 62.4141 18.7978 58.3884 21.7084 56.316C28.6578 51.3677 35.2313 48.0127 42.5002 48.0127C46.1414 48.0127 49.6078 48.8554 53.0346 50.3176L53.0346 16.4444L53.0433 16.1124C53.2171 12.7076 56.049 10 59.5173 10C62.9856 10 65.8175 12.7076 65.9913 16.1124L66 16.4444Z" fill="url(#paint1_linear_1156_26)"/>
<defs>
<linearGradient id="paint0_linear_1156_26" x1="66" y1="15.5" x2="19" y2="62.5" gradientUnits="userSpaceOnUse">
<stop stop-color="#6F50FF"/>
<stop offset="0.5" stop-color="#8B73FF"/>
<stop offset="1" stop-color="#6F50FF"/>
</linearGradient>
<linearGradient id="paint1_linear_1156_26" x1="66" y1="15.5" x2="19" y2="62.5" gradientUnits="userSpaceOnUse">
<stop stop-color="#6F50FF"/>
<stop offset="0.5" stop-color="#8B73FF"/>
<stop offset="1" stop-color="#6F50FF"/>
</linearGradient>
</defs>
</svg>
